<?xml version="1.0" encoding="iso-8859-1"?>
<!-- Uploaded to: SVG Repo, www.svgrepo.com, Generator: SVG Repo Mixer Tools -->
<svg height="800px" width="800px" version="1.1" id="Layer_1" xmlns="http://www.w3.org/2000/svg" xmlns:xlink="http://www.w3.org/1999/xlink" 
	 viewBox="0 0 512 512" xml:space="preserve">
<path style="fill:#7DBB34;" d="M49.704,423.441h162.472c0-110.428,67.531-205.072,163.541-244.923V8.017
	C188.602,53.595,49.704,222.297,49.704,423.441z"/>
<path style="fill:#FD5E95;" d="M101.01,423.441h111.165c0-110.428,67.531-205.072,163.541-244.923V61.061
	C217.248,105.374,101.01,250.831,101.01,423.441z"/>
<path style="fill:#45CAE0;" d="M152.317,423.441h59.858c0-110.428,67.531-205.072,163.541-244.923v-63.815
	C245.99,157.346,152.317,279.446,152.317,423.441z"/>
<path style="fill:#E9E9EA;" d="M452.676,76.426c-6.447,0-12.61,1.2-18.293,3.37c0.779-3.853,1.191-7.839,1.191-11.921
	c0-33.059-26.799-59.858-59.858-59.858s-59.858,26.799-59.858,59.858c0,4.082,0.412,8.068,1.191,11.921
	c-5.683-2.171-11.847-3.37-18.293-3.37c-28.336,0-51.307,22.971-51.307,51.307c0,25.422,17.102,51.307,42.756,51.307l0,0h162.472
	c28.336,0,51.307-22.971,51.307-51.307S481.013,76.426,452.676,76.426z"/>
<path style="fill:#D3D3D5;" d="M461.228,161.937H298.756c-25.653,0-42.756-25.885-42.756-51.307c0-4.849,0.687-9.533,1.944-13.98
	c-6.58,8.626-10.495,19.395-10.495,31.082c0,25.422,17.102,51.307,42.756,51.307h162.472c23.488,0,43.274-15.789,49.363-37.327
	C492.666,154.002,477.877,161.937,461.228,161.937z"/>
<path style="fill:#E9E9EA;" d="M213.244,401.37c-6.447,0-12.61,1.2-18.293,3.37c0.779-3.853,1.191-7.839,1.191-11.921
	c0-33.059-26.799-59.858-59.858-59.858s-59.858,26.799-59.858,59.858c0,4.082,0.412,8.068,1.191,11.921
	c-5.683-2.171-11.847-3.37-18.293-3.37c-28.336,0-51.307,22.97-51.307,51.307c0,25.421,17.102,51.307,42.756,51.307l0,0h162.472
	c28.336,0,51.307-22.971,51.307-51.307C264.551,424.34,241.581,401.37,213.244,401.37z"/>
<path style="fill:#D3D3D5;" d="M221.795,486.881H59.324c-25.653,0-42.756-25.885-42.756-51.307c0-4.849,0.687-9.533,1.944-13.98
	c-6.58,8.626-10.495,19.395-10.495,31.082c0,25.421,17.102,51.307,42.756,51.307h162.472c23.488,0,43.274-15.789,49.363-37.327
	C253.234,478.946,238.445,486.881,221.795,486.881z"/>
<g>
	<path style="fill:#FFC20D;" d="M452.676,247.449c0,18.891,15.314,34.205,34.205,34.205c-18.891,0-34.205,15.314-34.205,34.205
		c0-18.891-15.314-34.205-34.205-34.205C437.362,281.653,452.676,266.339,452.676,247.449z"/>
	<path style="fill:#FFC20D;" d="M358.614,392.818c0,18.891,15.314,34.205,34.205,34.205c-18.891,0-34.205,15.314-34.205,34.205
		c0-18.891-15.314-34.205-34.205-34.205C343.3,427.023,358.614,411.709,358.614,392.818z"/>
	<path style="fill:#FFC20D;" d="M59.324,59.324c0,18.891,15.314,34.205,34.205,34.205c-18.891,0-34.205,15.314-34.205,34.205
		c0-18.891-15.314-34.205-34.205-34.205C44.01,93.528,59.324,78.214,59.324,59.324z"/>
</g>
<path d="M374.957,187.549c0.33-0.143,0.639-0.312,0.94-0.493h76.78c32.711,0,59.324-26.612,59.324-59.324
	s-26.612-59.324-59.324-59.324c-3.062,0-6.1,0.234-9.096,0.697c0.007-0.41,0.011-0.822,0.011-1.231
	C443.591,30.449,413.142,0,375.716,0c-13.835,0-26.71,4.17-37.452,11.306c-1.132-0.119-2.306-0.006-3.453,0.391
	c-50.066,17.318-96.094,43.441-136.802,77.641c-3.077,2.585-3.753,7.21-1.53,10.562c2.609,3.934,8.225,4.753,11.843,1.713
	c32.517-27.318,68.565-49.263,107.421-65.477c-5.037,9.479-7.902,20.278-7.902,31.739c0,0.41,0.003,0.822,0.011,1.231
	c-2.996-0.463-6.034-0.697-9.096-0.697c-30.814,0-56.208,23.618-59.05,53.701c-0.952,0.289-1.867,0.755-2.69,1.415
	c-66.301,53.175-113.643,127.661-133.388,209.813c-20.974,11.561-35.218,33.886-35.218,59.48c0,0.41,0.003,0.822,0.011,1.231
	c-2.819-0.436-5.675-0.661-8.552-0.687c7.234-102.945,51.625-198.953,125.476-270.948c3.17-3.091,3.234-8.166,0.144-11.336
	c-3.091-3.171-8.167-3.236-11.337-0.144C96.704,186.435,50.458,287.372,43.658,395.468C18.526,402.358,0,425.388,0,452.676
	c0,14.414,4.966,29.039,13.624,40.122C23.298,505.18,36.49,512,50.772,512h102.614c4.427,0,8.017-3.588,8.017-8.017
	s-3.589-8.017-8.017-8.017H50.772c-20.78,0-34.739-22.384-34.739-43.29c0-23.871,19.42-43.29,43.29-43.29
	c5.3,0,10.492,0.957,15.433,2.843c5.789,2.207,11.946-3.001,10.718-9.077c-0.684-3.387-1.031-6.864-1.031-10.334
	c0-28.585,23.256-51.841,51.841-51.841s51.841,23.256,51.841,51.841c0,3.47-0.347,6.947-1.031,10.334
	c-1.228,6.077,4.928,11.284,10.718,9.077c4.94-1.888,10.133-2.843,15.433-2.843c23.871,0,43.29,19.42,43.29,43.29
	c0,23.871-19.42,43.29-43.29,43.29h-25.298c-4.427,0-8.017,3.588-8.017,8.017s3.589,8.017,8.017,8.017h25.298
	c32.711,0,59.324-26.612,59.324-59.324c0-29.783-22.064-54.502-50.703-58.69C232.246,303.018,290.546,224.21,374.957,187.549z
	 M298.756,84.443c5.3,0,10.492,0.957,15.433,2.843c5.789,2.209,11.945-3.003,10.718-9.077c-0.684-3.387-1.031-6.864-1.031-10.334
	c0-28.585,23.256-51.841,51.841-51.841c28.585,0,51.841,23.256,51.841,51.841c0,3.47-0.347,6.947-1.031,10.334
	c-1.228,6.078,4.928,11.282,10.718,9.077c4.94-1.888,10.133-2.843,15.433-2.843c23.871,0,43.29,19.42,43.29,43.29
	s-19.42,43.29-43.29,43.29H290.205c-17.207,0-34.739-21.847-34.739-43.29C255.466,103.862,274.885,84.443,298.756,84.443z
	 M121.949,326.481c19.644-71.993,61.476-137.241,119.021-185.463c2.22,9.682,6.776,19.081,13.221,26.972
	c1.33,1.628,2.722,3.156,4.161,4.593c-47.863,41.766-82.374,95.443-100.316,155.956c-6.833-2.318-14.145-3.596-21.752-3.596
	C131.366,324.944,126.573,325.482,121.949,326.481z M205.753,393.833c-0.537,0.068-1.072,0.135-1.607,0.217
	c0.007-0.41,0.011-0.822,0.011-1.231c0-24.039-12.573-45.185-31.479-57.248c17.186-59.733,51.293-112.583,98.913-153.229
	c5.98,3.066,12.31,4.714,18.613,4.714h50.205C265.589,230.381,215.127,306.978,205.753,393.833z"/>
<path d="M486.881,273.637c-14.44,0-26.188-11.747-26.188-26.188c0-4.428-3.589-8.017-8.017-8.017c-4.427,0-8.017,3.588-8.017,8.017
	c0,14.441-11.748,26.188-26.188,26.188c-4.427,0-8.017,3.588-8.017,8.017s3.589,8.017,8.017,8.017
	c14.44,0,26.188,11.747,26.188,26.188c0,4.428,3.589,8.017,8.017,8.017c4.427,0,8.017-3.588,8.017-8.017
	c0-14.441,11.748-26.188,26.188-26.188c4.427,0,8.017-3.588,8.017-8.017S491.308,273.637,486.881,273.637z M452.676,291.131
	c-2.637-3.636-5.84-6.841-9.478-9.478c3.636-2.637,6.841-5.841,9.478-9.478c2.637,3.636,5.84,6.841,9.478,9.478
	C458.517,284.29,455.313,287.495,452.676,291.131z"/>
<path d="M392.818,419.006c-14.44,0-26.188-11.747-26.188-26.188c0-4.428-3.589-8.017-8.017-8.017c-4.427,0-8.017,3.588-8.017,8.017
	c0,14.441-11.748,26.188-26.188,26.188c-4.427,0-8.017,3.588-8.017,8.017s3.589,8.017,8.017,8.017
	c14.44,0,26.188,11.747,26.188,26.188c0,4.428,3.589,8.017,8.017,8.017c4.427,0,8.017-3.588,8.017-8.017
	c0-14.441,11.748-26.188,26.188-26.188c4.427,0,8.017-3.588,8.017-8.017S397.246,419.006,392.818,419.006z M358.614,436.501
	c-2.637-3.636-5.84-6.841-9.478-9.478c3.636-2.637,6.841-5.841,9.478-9.478c2.637,3.636,5.84,6.841,9.478,9.478
	C364.454,429.66,361.251,432.864,358.614,436.501z"/>
<path d="M25.119,101.545c14.44,0,26.188,11.747,26.188,26.188c0,4.428,3.589,8.017,8.017,8.017s8.017-3.588,8.017-8.017
	c0-14.441,11.748-26.188,26.188-26.188c4.427,0,8.017-3.588,8.017-8.017c0-4.428-3.589-8.017-8.017-8.017
	c-14.44,0-26.188-11.747-26.188-26.188c0-4.428-3.589-8.017-8.017-8.017s-8.017,3.588-8.017,8.017
	c0,14.441-11.748,26.188-26.188,26.188c-4.427,0-8.017,3.588-8.017,8.017C17.102,97.957,20.692,101.545,25.119,101.545z
	 M59.324,84.05c2.637,3.636,5.84,6.841,9.478,9.478c-3.636,2.637-6.841,5.841-9.478,9.478c-2.637-3.636-5.84-6.841-9.478-9.478
	C53.483,90.891,56.687,87.687,59.324,84.05z"/>
</svg>