<!DOCTYPE svg PUBLIC "-//W3C//DTD SVG 1.1//EN" "http://www.w3.org/Graphics/SVG/1.1/DTD/svg11.dtd">

<!-- Uploaded to: SVG Repo, www.svgrepo.com, Transformed by: SVG Repo Mixer Tools -->
<svg width="50x" height="50px" viewBox="0 0 16 16" xmlns="http://www.w3.org/2000/svg" fill="#000000">

<g id="SVGRepo_bgCarrier" stroke-width="0"/>

<g id="SVGRepo_tracerCarrier" stroke-linecap="round" stroke-linejoin="round"/>

<g id="SVGRepo_iconCarrier"> <path d="m 2 1 c -0.554688 0 -1 0.445312 -1 1 v 2 c 0 0.554688 0.445312 1 1 1 h 2 c 0.554688 0 1 -0.445312 1 -1 v -2 c 0 -0.554688 -0.445312 -1 -1 -1 z m 5 1 v 2 h 8 v -2 z m -5 4.015625 c -0.554688 0 -1 0.445313 -1 1 v 1.980469 c 0 0.550781 0.445312 1 1 1 h 2 c 0.554688 0 1 -0.449219 1 -1 v -1.980469 c 0 -0.554687 -0.445312 -1 -1 -1 z m 5 0.984375 v 2 h 8 v -2 z m -5 4 c -0.554688 0 -1 0.445312 -1 1 v 1.980469 c 0 0.550781 0.445312 1 1 1 h 2 c 0.554688 0 1 -0.449219 1 -1 v -1.980469 c 0 -0.554688 -0.445312 -1 -1 -1 z m 5 0.984375 v 2 h 8 v -2 z m 0 0" fill="#39717f"/> </g>

</svg>